<?xml version="1.0" standalone="no"?>
<!DOCTYPE svg PUBLIC "-//W3C//DTD SVG 20010904//EN"
 "http://www.w3.org/TR/2001/REC-SVG-20010904/DTD/svg10.dtd">
<svg version="1.0" xmlns="http://www.w3.org/2000/svg"
 width="792.000000pt" height="792.000000pt" viewBox="0 0 792.000000 792.000000"
 preserveAspectRatio="xMidYMid meet">
<metadata>
Created by potrace 1.11, written by Peter Selinger 2001-2013
</metadata>
<g transform="translate(0.000000,792.000000) scale(0.100000,-0.100000)"
fill="#000000" stroke="none">
<path d="M4991 7905 c-103 -29 -203 -103 -262 -194 l-15 -25 -110 46 c-454
189 -859 222 -1252 102 -99 -30 -273 -110 -347 -161 -56 -38 -45 -43 -106 45
-16 23 -56 62 -88 86 -202 148 -478 97 -620 -114 -62 -94 -85 -180 -79 -299 6
-108 27 -173 83 -257 42 -65 132 -137 198 -161 30 -11 46 -22 43 -30 -6 -15
-132 -315 -151 -358 -26 -59 -174 -452 -210 -555 -69 -197 -175 -523 -181
-556 -1 -6 -13 -48 -27 -95 -96 -317 -221 -862 -282 -1229 -31 -188 -32 -194
-40 -250 -3 -25 -8 -56 -10 -70 -2 -14 -7 -49 -10 -79 -4 -30 -8 -61 -10 -70
-5 -30 -33 -286 -40 -376 -3 -38 -7 -88 -10 -110 -3 -22 -7 -87 -10 -145 -4
-58 -8 -128 -11 -155 -2 -28 -6 -207 -9 -400 -4 -314 -2 -361 15 -459 10 -59
21 -120 24 -135 57 -345 164 -696 276 -907 92 -173 237 -342 367 -430 32 -21
63 -44 70 -51 24 -22 379 -193 508 -244 309 -123 659 -212 950 -243 161 -17
245 -21 475 -20 233 0 429 14 570 39 14 3 41 7 60 10 324 52 728 177 985 306
128 64 153 79 251 155 250 193 394 459 454 839 29 186 29 191 48 540 13 239 6
722 -13 885 -2 19 -6 71 -10 115 -3 44 -8 89 -10 100 -3 11 -7 45 -10 75 -6
57 -11 101 -19 160 -3 19 -8 55 -11 80 -4 25 -15 95 -25 155 -10 61 -21 126
-24 145 -8 47 -14 82 -31 165 -16 82 -20 101 -35 177 -21 108 -114 505 -151
646 -135 510 -197 716 -379 1262 -128 385 -213 622 -380 1068 l-43 113 45 44
c254 247 178 685 -139 805 -75 29 -190 35 -262 15z"/>
</g>
</svg>
